<svg width="39" height="39" viewBox="0 0 39 39" fill="none" xmlns="http://www.w3.org/2000/svg">
<circle cx="24.9522" cy="24.7989" r="5.30374" fill="white"/>
<path fill-rule="evenodd" clip-rule="evenodd" d="M24.952 38.8464C32.7104 38.8464 38.9998 32.5571 38.9998 24.7987C38.9998 17.0404 32.7104 10.751 24.952 10.751C17.1937 10.751 10.9043 17.0404 10.9043 24.7987C10.9043 32.5571 17.1937 38.8464 24.952 38.8464ZM24.9517 34.5467C30.335 34.5467 34.6991 30.1826 34.6991 24.7993C34.6991 19.4159 30.335 15.0518 24.9517 15.0518C19.5683 15.0518 15.2043 19.4159 15.2043 24.7993C15.2043 30.1826 19.5683 34.5467 24.9517 34.5467Z" fill="white"/>
<path fill-rule="evenodd" clip-rule="evenodd" d="M0.995379 13.8415C0.486869 14.4221 0.320464 15.3316 0.985169 15.7238C1.28266 15.8993 1.62955 16 1.99996 16H6.60299C6.86243 16 7.11939 15.9495 7.35955 15.8514L7.36721 15.8483L9.11875 20.195C11.1111 13.3313 17.4456 8.31426 24.9519 8.31426C27.5284 8.31426 29.9669 8.90539 32.1392 9.95944L30.5246 5.9525L33.8889 2.11154C34.4283 1.49569 34.5654 0.51008 33.8185 0.174649C33.5687 0.0624277 33.2916 0 33 0H14.0263C13.4499 0 12.9016 0.248651 12.5218 0.682213L0.995379 13.8415Z" fill="white"/>
</svg>
